<?xml version="1.0" encoding="UTF-8" standalone="no"?>
<!-- Uploaded to: SVG Repo, www.svgrepo.com, Generator: SVG Repo Mixer Tools -->

<!-- LICENSE: PD License -->

<svg
   fill="#000000"
   height="800px"
   width="800px"
   version="1.1"
   id="Layer_1"
   viewBox="0 0 1792 1792"
   xml:space="preserve"
   sodipodi:docname="close.svg"
   inkscape:version="1.2.2 (b0a8486541, 2022-12-01)"
   xmlns:inkscape="http://www.inkscape.org/namespaces/inkscape"
   xmlns:sodipodi="http://sodipodi.sourceforge.net/DTD/sodipodi-0.dtd"
   xmlns="http://www.w3.org/2000/svg"
   xmlns:svg="http://www.w3.org/2000/svg"><defs
   id="defs7" /><sodipodi:namedview
   id="namedview5"
   pagecolor="#adadad"
   bordercolor="#000000"
   borderopacity="0.25"
   inkscape:showpageshadow="2"
   inkscape:pageopacity="0"
   inkscape:pagecheckerboard="0"
   inkscape:deskcolor="#d1d1d1"
   showgrid="false"
   inkscape:zoom="0.9775"
   inkscape:cx="401.02302"
   inkscape:cy="400"
   inkscape:window-width="1920"
   inkscape:window-height="1011"
   inkscape:window-x="0"
   inkscape:window-y="0"
   inkscape:window-maximized="1"
   inkscape:current-layer="Layer_1" />
<path
   d="M1082.2,896.6l410.2-410c51.5-51.5,51.5-134.6,0-186.1s-134.6-51.5-186.1,0l-410.2,410L486,300.4  c-51.5-51.5-134.6-51.5-186.1,0s-51.5,134.6,0,186.1l410.2,410l-410.2,410c-51.5,51.5-51.5,134.6,0,186.1  c51.6,51.5,135,51.5,186.1,0l410.2-410l410.2,410c51.5,51.5,134.6,51.5,186.1,0c51.1-51.5,51.1-134.6-0.5-186.2L1082.2,896.6z"
   id="path2"
   style="fill:#fdfdfd;fill-opacity:1" />
</svg>
