<?xml version="1.0" encoding="UTF-8" standalone="no"?>
<!-- Uploaded to: SVG Repo, www.svgrepo.com, Generator: SVG Repo Mixer Tools -->

<!-- LICENSE: CC0 License -->

<svg
   fill="#ffffff"
   version="1.1"
   id="Capa_1"
   width="527.57599"
   height="800.02521"
   viewBox="0 0 20.679015 31.357988"
   xml:space="preserve"
   sodipodi:docname="questionmark.svg"
   inkscape:version="1.2.2 (b0a8486541, 2022-12-01)"
   xmlns:inkscape="http://www.inkscape.org/namespaces/inkscape"
   xmlns:sodipodi="http://sodipodi.sourceforge.net/DTD/sodipodi-0.dtd"
   xmlns="http://www.w3.org/2000/svg"
   xmlns:svg="http://www.w3.org/2000/svg"><defs
   id="defs9" /><sodipodi:namedview
   id="namedview7"
   pagecolor="#696969"
   bordercolor="#000000"
   borderopacity="0.25"
   inkscape:showpageshadow="2"
   inkscape:pageopacity="0"
   inkscape:pagecheckerboard="0"
   inkscape:deskcolor="#d1d1d1"
   showgrid="false"
   inkscape:zoom="0.9775"
   inkscape:cx="263.93862"
   inkscape:cy="400"
   inkscape:window-width="1920"
   inkscape:window-height="1011"
   inkscape:window-x="0"
   inkscape:window-y="0"
   inkscape:window-maximized="1"
   inkscape:current-layer="Capa_1" />
<g
   id="g4"
   transform="translate(-5.3399998)">
	<path
   d="m 15.255,0 c 5.424,0 10.764,2.498 10.764,8.473 0,5.51 -6.314,7.629 -7.67,9.62 -1.018,1.481 -0.678,3.562 -3.475,3.562 -1.822,0 -2.712,-1.482 -2.712,-2.838 0,-5.046 7.414,-6.188 7.414,-10.343 0,-2.287 -1.522,-3.643 -4.066,-3.643 -5.424,0 -3.306,5.592 -7.414,5.592 C 6.613,10.423 5.34,9.533 5.34,7.839 5.339,3.683 10.084,0 15.255,0 Z m -0.211,24.406 c 1.904,0 3.475,1.566 3.475,3.476 0,1.91 -1.568,3.476 -3.475,3.476 -1.907,0 -3.476,-1.564 -3.476,-3.476 0,-1.909 1.569,-3.476 3.476,-3.476 z"
   id="path2" />
</g>
</svg>
